<?xml version="1.0" encoding="utf-8"?>
<!-- Generator: Adobe Illustrator 22.0.0, SVG Export Plug-In . SVG Version: 6.00 Build 0)  -->
<svg version="1.1" id="Layer_1" xmlns="http://www.w3.org/2000/svg" xmlns:xlink="http://www.w3.org/1999/xlink" x="0px" y="0px"
	 viewBox="0 0 30 30" style="enable-background:new 0 0 30 30;" xml:space="preserve">
<style type="text/css">
	.st0{fill:#696969;}
	.st1{fill:#FFFFFF;}
</style>
<circle class="st0" cx="15" cy="15" r="15"/>
<g>
	<path class="st1" d="M9.3,16.7c-0.4-0.4-0.8-0.8-1.1-1.3c-0.6-0.9-0.9-1.9-0.9-2.8c0-1.3,0.4-2.4,1.2-3.2s1.9-1.2,3.3-1.2
		c1.1,0,2.1,0.5,3.3,1.5c1.1-1,2.2-1.5,3.3-1.5c1.3,0,2.4,0.4,3.2,1.2s1.2,1.9,1.2,3.2c0,0.7-0.2,1.5-0.6,2.2
		c-0.4,0.7-0.8,1.3-1.4,1.8l-4.8,4.7c-0.3,0.3-0.6,0.4-0.9,0.4s-0.7-0.1-0.9-0.4L9.3,16.7z M15,20.3l4.7-4.6
		c0.4-0.4,0.8-0.9,1.1-1.4c0.3-0.6,0.5-1.1,0.5-1.7c0-1-0.3-1.7-0.8-2.2s-1.3-0.8-2.3-0.8c-0.6,0-1.2,0.2-1.8,0.7
		c-0.4,0.3-0.8,0.7-1.3,1.2L15,11.6l-0.1-0.1c-0.5-0.5-0.9-0.9-1.3-1.1c-0.7-0.5-1.3-0.7-1.8-0.7c-1,0-1.7,0.3-2.3,0.8
		s-0.8,1.3-0.8,2.2c0,0.5,0.2,1.1,0.5,1.6c0.3,0.5,0.7,1,1.1,1.4L15,20.3z"/>
</g>
</svg>
