<?xml version="1.0" encoding="utf-8"?>
<!-- Generator: Adobe Illustrator 22.0.0, SVG Export Plug-In . SVG Version: 6.00 Build 0)  -->
<svg version="1.1" id="Layer_1" xmlns="http://www.w3.org/2000/svg" xmlns:xlink="http://www.w3.org/1999/xlink" x="0px" y="0px"
	 viewBox="0 0 32 32" style="enable-background:new 0 0 32 32;" xml:space="preserve">
<style type="text/css">
	.st0{fill:#1E1E1E;}
</style>
<path class="st0" d="M30.6,9.6H8.2L6.4,2.1h-5v1.1h4.2l5.2,21.4C9.7,25,8.8,26,8.8,27.2c0,1.5,1.2,2.7,2.7,2.7s2.7-1.2,2.7-2.7
	c0-0.6-0.2-1.2-0.5-1.6h7.5c-0.3,0.4-0.5,1-0.5,1.6c0,1.5,1.2,2.7,2.7,2.7s2.7-1.2,2.7-2.7c0-1.5-1.2-2.7-2.7-2.7l0,0H11.8l-0.5-2.1
	h15L30.6,9.6L30.6,9.6z M13.1,27.2c0,0.9-0.7,1.6-1.6,1.6s-1.6-0.7-1.6-1.6s0.7-1.6,1.6-1.6S13.1,26.3,13.1,27.2z M24.8,27.2
	c0,0.9-0.7,1.6-1.6,1.6s-1.6-0.7-1.6-1.6s0.7-1.6,1.6-1.6S24.8,26.3,24.8,27.2z M11.1,21.3L8.5,10.7h20.7l-3.6,10.7H11.1z"/>
</svg>
